<?xml version="1.0" encoding="UTF-8" standalone="no" ?>
<!DOCTYPE svg PUBLIC "-//W3C//DTD SVG 1.1//EN" "http://www.w3.org/Graphics/SVG/1.1/DTD/svg11.dtd">
<svg xmlns="http://www.w3.org/2000/svg" xmlns:xlink="http://www.w3.org/1999/xlink" version="1.1" width="1080" height="1080" viewBox="0 0 1080 1080" xml:space="preserve">
<desc>Created with Fabric.js 5.2.4</desc>
<defs>
</defs>
<g transform="matrix(1 0 0 1 540 540)" id="e874851c-2608-4067-bd29-48d112a42ed6"  >
<rect style="stroke: none; stroke-width: 1; stroke-dasharray: none; stroke-linecap: butt; stroke-dashoffset: 0; stroke-linejoin: miter; stroke-miterlimit: 4; fill: rgb(255,255,255); fill-rule: nonzero; opacity: 1; visibility: hidden;" vector-effect="non-scaling-stroke"  x="-540" y="-540" rx="0" ry="0" width="1080" height="1080" />
</g>
<g transform="matrix(1 0 0 1 540 540)" id="264f4883-54de-43bc-93ed-6e13328d6ac6"  >
</g>
<g transform="matrix(43.67 0 0 44.3 536.12 543.41)"  >
<path style="stroke: rgb(0,0,0); stroke-width: 0; stroke-dasharray: none; stroke-linecap: butt; stroke-dashoffset: 0; stroke-linejoin: miter; stroke-miterlimit: 4; fill: rgb(35,155,29); fill-rule: nonzero; opacity: 1;" vector-effect="non-scaling-stroke"  transform=" translate(-12, -12)" d="M 13 20 C 12.45 20 12 19.55 12 19 L 12 13 C 12 12.45 11.55 12 11 12 C 10.45 12 10 11.55 10 11 C 10 10.45 10.45 10 11 10 C 12.65 10 14 11.35 14 13 L 14 19 C 14 19.55 13.55 20 13 20 Z M 12 5 C 11.17 5 10.5 5.67 10.5 6.5 C 10.5 7.33 11.17 8 12 8 C 12.83 8 13.5 7.33 13.5 6.5 C 13.5 5.67 12.83 5 12 5 Z M 24 19 L 24 5 C 24 2.24 21.759999999999998 0 19 0 L 5 0 C 2.24 0 0 2.24 0 5 L 0 19 C 0 21.759999999999998 2.24 24 5 24 L 19 24 C 21.759999999999998 24 24 21.759999999999998 24 19 Z M 19 2 C 20.65 2 22 3.35 22 5 L 22 19 C 22 20.65 20.65 22 19 22 L 5 22 C 3.35 22 2 20.65 2 19 L 2 5 C 2 3.35 3.35 2 5 2 L 19 2 Z" stroke-linecap="round" />
</g>
<g transform="matrix(0 0 0 0 0 0)"  >
<g style=""   >
</g>
</g>
<g transform="matrix(0 0 0 0 0 0)"  >
<g style=""   >
</g>
</g>
<g transform="matrix(0 0 0 0 0 0)"  >
<g style=""   >
</g>
</g>
<g transform="matrix(0 0 0 0 0 0)"  >
<g style=""   >
</g>
</g>
<g transform="matrix(0 0 0 0 0 0)"  >
<g style=""   >
</g>
</g>
</svg>