<?xml version="1.0" encoding="UTF-8" standalone="no" ?>
<!DOCTYPE svg PUBLIC "-//W3C//DTD SVG 1.1//EN" "http://www.w3.org/Graphics/SVG/1.1/DTD/svg11.dtd">
<svg xmlns="http://www.w3.org/2000/svg" xmlns:xlink="http://www.w3.org/1999/xlink" version="1.1" width="1080" height="1080" viewBox="0 0 1080 1080" xml:space="preserve">
<desc>Created with Fabric.js 5.2.4</desc>
<defs>
</defs>
<g transform="matrix(1 0 0 1 540 540)" id="3bda83e7-f9ef-48bf-bd36-f31972d1c89c"  >
<rect style="stroke: none; stroke-width: 1; stroke-dasharray: none; stroke-linecap: butt; stroke-dashoffset: 0; stroke-linejoin: miter; stroke-miterlimit: 4; fill: rgb(255,255,255); fill-rule: nonzero; opacity: 1; visibility: hidden;" vector-effect="non-scaling-stroke"  x="-540" y="-540" rx="0" ry="0" width="1080" height="1080" />
</g>
<g transform="matrix(1 0 0 1 540 540)" id="a767e56f-a4e5-4ff6-8b31-2b0573cefff5"  >
</g>
<g transform="matrix(2.08 0 0 2.08 539.09 538.86)"  >
<g style="" vector-effect="non-scaling-stroke"   >
		<g transform="matrix(1 0 0 1 85.45 78.12)"  >
<path style="stroke: none; stroke-width: 1; stroke-dasharray: none; stroke-linecap: butt; stroke-dashoffset: 0; stroke-linejoin: miter; stroke-miterlimit: 4; fill: rgb(35,155,29); fill-rule: nonzero; opacity: 1;" vector-effect="non-scaling-stroke"  transform=" translate(-341.25, -335.01)" d="M 173.5 508.7 C 173.5 506.3 173.5 504 173.5 501.7 C 173.5 394 173.5 286.4 173.5 178.7 C 173.5 175.7 173.3 173.29999999999998 177.7 173.29999999999998 C 209.5 173.49999999999997 241.39999999999998 173.39999999999998 273.2 173.39999999999998 C 274 173.39999999999998 274.8 173.59999999999997 276.09999999999997 173.79999999999998 C 276.09999999999997 187.79999999999998 276.09999999999997 201.6 276.09999999999997 215.5 C 276.49999999999994 215.6 276.79999999999995 215.8 277.2 215.9 C 281.2 210.70000000000002 285 205.3 289.2 200.20000000000002 C 301.4 185.20000000000002 316.7 174.20000000000002 334.7 167.60000000000002 C 344.5 164.00000000000003 355.2 161.8 365.5 161.3 C 379.7 160.70000000000002 394.2 160.9 408.2 163.3 C 431.2 167.20000000000002 451.5 177.4 468.3 194.10000000000002 C 484.2 209.8 494.7 228.70000000000002 500.40000000000003 250.00000000000003 C 503.40000000000003 261.3 505.3 272.90000000000003 507.1 284.40000000000003 C 508.3 292.40000000000003 508.90000000000003 300.6 508.90000000000003 308.6 C 509.00000000000006 373.6 509.00000000000006 438.6 509.00000000000006 503.6 C 509.00000000000006 505.20000000000005 508.90000000000003 506.8 508.80000000000007 508.90000000000003 C 506.9000000000001 508.90000000000003 505.30000000000007 508.90000000000003 503.70000000000005 508.90000000000003 C 473.00000000000006 508.90000000000003 442.40000000000003 508.8 411.70000000000005 509.00000000000006 C 406.6 509.00000000000006 405.70000000000005 507.30000000000007 405.70000000000005 502.70000000000005 C 405.80000000000007 442.90000000000003 406.00000000000006 383.00000000000006 405.6 323.20000000000005 C 405.5 312.70000000000005 404.5 301.80000000000007 401.8 291.70000000000005 C 396.90000000000003 274.00000000000006 385.7 261.20000000000005 367.90000000000003 254.70000000000005 C 352.90000000000003 249.20000000000005 337.70000000000005 248.20000000000005 322.3 252.10000000000005 C 305.3 256.40000000000003 293.6 267.70000000000005 284.8 282.6 C 278 294.1 276.7 306.8 276.6 319.5 C 276.20000000000005 380.2 276.40000000000003 440.8 276.40000000000003 501.5 C 276.40000000000003 503.8 276.40000000000003 506.1 276.40000000000003 508.6 C 241.9 508.7 208 508.7 173.5 508.7 z" stroke-linecap="round" />
</g>
		<g transform="matrix(1 0 0 1 -198.55 85.37)"  >
<path style="stroke: none; stroke-width: 1; stroke-dasharray: none; stroke-linecap: butt; stroke-dashoffset: 0; stroke-linejoin: miter; stroke-miterlimit: 4; fill: rgb(35,155,29); fill-rule: nonzero; opacity: 1;" vector-effect="non-scaling-stroke"  transform=" translate(-57.25, -342.25)" d="M 109.1 342.6 C 109.1 395.90000000000003 109 449.20000000000005 109.19999999999999 502.5 C 109.19999999999999 507.3 108.19999999999999 509.1 102.89999999999999 509 C 72.39999999999999 508.7 41.89999999999999 508.7 11.399999999999991 509 C 6.3999999999999915 509 5.299999999999992 507.3 5.299999999999992 502.7 C 5.3999999999999915 395.6 5.3999999999999915 288.4 5.299999999999992 181.3 C 5.299999999999992 177 6.499999999999992 175.5 10.899999999999991 175.5 C 41.69999999999999 175.7 72.5 175.7 103.39999999999999 175.5 C 108.19999999999999 175.5 109.1 177.3 109.1 181.6 C 109.1 235.3 109.1 289 109.1 342.6 z" stroke-linecap="round" />
</g>
		<g transform="matrix(1 0 0 1 -200.1 -199.75)"  >
<path style="stroke: none; stroke-width: 1; stroke-dasharray: none; stroke-linecap: butt; stroke-dashoffset: 0; stroke-linejoin: miter; stroke-miterlimit: 4; fill: rgb(35,155,29); fill-rule: nonzero; opacity: 1;" vector-effect="non-scaling-stroke"  transform=" translate(-55.7, -57.13)" d="M 56.1 4.8 C 89 4 108.7 27.9 108.8 57.2 C 108.89999999999999 87.2 87.9 109.6 54.9 109.5 C 24.2 109.5 2.5 87.5 2.6000000000000014 56.4 C 2.7 27.3 23.8 3.8 56.1 4.8 z" stroke-linecap="round" />
</g>
</g>
</g>
<g transform="matrix(NaN NaN NaN NaN 0 0)"  >
<g style=""   >
</g>
</g>
</svg>